<svg width="28" height="28" viewBox="0 0 28 28" fill="none" xmlns="http://www.w3.org/2000/svg">
<g id="Logo 2">
<path id="Vector" d="M9.62993 13.9995C9.62993 11.5868 11.5864 9.63047 14.0005 9.63047C16.4146 9.63047 18.3721 11.5868 18.3721 13.9995C18.3721 16.4121 16.4146 18.3684 14.0005 18.3684C11.5864 18.3684 9.62993 16.4121 9.62993 13.9995ZM7.26672 13.9995C7.26672 17.7163 10.2814 20.7292 14.0005 20.7292C17.7195 20.7292 20.7342 17.7163 20.7342 13.9995C20.7342 10.2826 17.7195 7.26973 14.0005 7.26973C10.2814 7.26973 7.26672 10.2826 7.26672 13.9995ZM19.4272 7.0029C19.427 7.31395 19.5192 7.61805 19.692 7.87675C19.8648 8.13545 20.1105 8.33713 20.398 8.45628C20.6855 8.57543 21.0019 8.6067 21.3072 8.54614C21.6125 8.48558 21.8929 8.3359 22.1131 8.11604C22.3333 7.89618 22.4833 7.61601 22.5441 7.31096C22.605 7.00591 22.5739 6.68968 22.4549 6.40226C22.3359 6.11484 22.1343 5.86913 21.8756 5.69622C21.6169 5.5233 21.3127 5.43094 21.0014 5.43082H21.0008C20.5836 5.43101 20.1836 5.59668 19.8885 5.89145C19.5935 6.18621 19.4275 6.58596 19.4272 7.0029ZM8.70252 24.6673C7.42398 24.6092 6.72906 24.3963 6.26724 24.2165C5.65499 23.9783 5.21814 23.6946 4.75885 23.2362C4.29955 22.7778 4.01524 22.3416 3.77794 21.7297C3.59791 21.2684 3.38494 20.5737 3.32682 19.2959C3.26325 17.9145 3.25055 17.4995 3.25055 13.9996C3.25055 10.4997 3.2643 10.0858 3.32682 8.7032C3.38505 7.42543 3.59959 6.73208 3.77794 6.26939C4.01629 5.6575 4.30018 5.22091 4.75885 4.76189C5.21751 4.30287 5.65394 4.01874 6.26724 3.78157C6.72885 3.60165 7.42398 3.38881 8.70252 3.33073C10.0848 3.26719 10.5001 3.2545 14.0005 3.2545C17.5009 3.2545 17.9166 3.26824 19.3 3.33073C20.5786 3.38892 21.2723 3.60333 21.7353 3.78157C22.3476 4.01874 22.7844 4.3035 23.2437 4.76189C23.703 5.22028 23.9862 5.6575 24.2246 6.26939C24.4046 6.73071 24.6176 7.42543 24.6757 8.7032C24.7393 10.0858 24.752 10.4997 24.752 13.9996C24.752 17.4995 24.7393 17.9133 24.6757 19.2959C24.6175 20.5737 24.4035 21.2682 24.2246 21.7297C23.9862 22.3416 23.7024 22.7782 23.2437 23.2362C22.785 23.6942 22.3476 23.9783 21.7353 24.2165C21.2737 24.3964 20.5786 24.6093 19.3 24.6673C17.9177 24.7309 17.5025 24.7436 14.0005 24.7436C10.4985 24.7436 10.0844 24.7309 8.70252 24.6673ZM8.59394 0.972924C7.1979 1.03646 6.24395 1.25769 5.41086 1.58167C4.54808 1.91623 3.8177 2.36509 3.08784 3.09335C2.35798 3.82162 1.91001 4.55272 1.57524 5.41499C1.25107 6.2481 1.02971 7.20095 0.966136 8.59616C0.901511 9.99356 0.886719 10.4403 0.886719 13.9995C0.886719 17.5586 0.901511 18.0054 0.966136 19.4028C1.02971 20.7981 1.25107 21.7508 1.57524 22.5839C1.91001 23.4457 2.35808 24.1776 3.08784 24.9056C3.81759 25.6335 4.54808 26.0817 5.41086 26.4172C6.24553 26.7412 7.1979 26.9625 8.59394 27.026C9.99292 27.0895 10.4392 27.1054 14.0005 27.1054C17.5618 27.1054 18.0088 27.0906 19.407 27.026C20.8032 26.9625 21.7565 26.7412 22.5901 26.4172C23.4524 26.0817 24.1833 25.6338 24.9131 24.9056C25.643 24.1773 26.09 23.4457 26.4257 22.5839C26.7499 21.7508 26.9723 20.798 27.0348 19.4028C27.0984 18.0043 27.1132 17.5586 27.1132 13.9995C27.1132 10.4403 27.0984 9.99356 27.0348 8.59616C26.9713 7.20085 26.7499 6.24758 26.4257 5.41499C26.09 4.55325 25.6418 3.82278 24.9131 3.09335C24.1844 2.36393 23.4524 1.91623 22.5912 1.58167C21.7565 1.25769 20.8031 1.03541 19.4081 0.972924C18.0098 0.909387 17.5628 0.893555 14.0015 0.893555C10.4403 0.893555 9.99292 0.908338 8.59394 0.972924Z" fill="url(#paint0_radial_74_724)"/>
<path id="Vector_2" d="M9.62993 13.9995C9.62993 11.5868 11.5864 9.63047 14.0005 9.63047C16.4146 9.63047 18.3721 11.5868 18.3721 13.9995C18.3721 16.4121 16.4146 18.3684 14.0005 18.3684C11.5864 18.3684 9.62993 16.4121 9.62993 13.9995ZM7.26672 13.9995C7.26672 17.7163 10.2814 20.7292 14.0005 20.7292C17.7195 20.7292 20.7342 17.7163 20.7342 13.9995C20.7342 10.2826 17.7195 7.26973 14.0005 7.26973C10.2814 7.26973 7.26672 10.2826 7.26672 13.9995ZM19.4272 7.0029C19.427 7.31395 19.5192 7.61805 19.692 7.87675C19.8648 8.13545 20.1105 8.33713 20.398 8.45628C20.6855 8.57543 21.0019 8.6067 21.3072 8.54614C21.6125 8.48558 21.8929 8.3359 22.1131 8.11604C22.3333 7.89618 22.4833 7.61601 22.5441 7.31096C22.605 7.00591 22.5739 6.68968 22.4549 6.40226C22.3359 6.11484 22.1343 5.86913 21.8756 5.69622C21.6169 5.5233 21.3127 5.43094 21.0014 5.43082H21.0008C20.5836 5.43101 20.1836 5.59668 19.8885 5.89145C19.5935 6.18621 19.4275 6.58596 19.4272 7.0029ZM8.70252 24.6673C7.42398 24.6092 6.72906 24.3963 6.26724 24.2165C5.65499 23.9783 5.21814 23.6946 4.75885 23.2362C4.29955 22.7778 4.01524 22.3416 3.77794 21.7297C3.59791 21.2684 3.38494 20.5737 3.32682 19.2959C3.26325 17.9145 3.25055 17.4995 3.25055 13.9996C3.25055 10.4997 3.2643 10.0858 3.32682 8.7032C3.38505 7.42543 3.59959 6.73208 3.77794 6.26939C4.01629 5.6575 4.30018 5.22091 4.75885 4.76189C5.21751 4.30287 5.65394 4.01874 6.26724 3.78157C6.72885 3.60165 7.42398 3.38881 8.70252 3.33073C10.0848 3.26719 10.5001 3.2545 14.0005 3.2545C17.5009 3.2545 17.9166 3.26824 19.3 3.33073C20.5786 3.38892 21.2723 3.60333 21.7353 3.78157C22.3476 4.01874 22.7844 4.3035 23.2437 4.76189C23.703 5.22028 23.9862 5.6575 24.2246 6.26939C24.4046 6.73071 24.6176 7.42543 24.6757 8.7032C24.7393 10.0858 24.752 10.4997 24.752 13.9996C24.752 17.4995 24.7393 17.9133 24.6757 19.2959C24.6175 20.5737 24.4035 21.2682 24.2246 21.7297C23.9862 22.3416 23.7024 22.7782 23.2437 23.2362C22.785 23.6942 22.3476 23.9783 21.7353 24.2165C21.2737 24.3964 20.5786 24.6093 19.3 24.6673C17.9177 24.7309 17.5025 24.7436 14.0005 24.7436C10.4985 24.7436 10.0844 24.7309 8.70252 24.6673ZM8.59394 0.972924C7.1979 1.03646 6.24395 1.25769 5.41086 1.58167C4.54808 1.91623 3.8177 2.36509 3.08784 3.09335C2.35798 3.82162 1.91001 4.55272 1.57524 5.41499C1.25107 6.2481 1.02971 7.20095 0.966136 8.59616C0.901511 9.99356 0.886719 10.4403 0.886719 13.9995C0.886719 17.5586 0.901511 18.0054 0.966136 19.4028C1.02971 20.7981 1.25107 21.7508 1.57524 22.5839C1.91001 23.4457 2.35808 24.1776 3.08784 24.9056C3.81759 25.6335 4.54808 26.0817 5.41086 26.4172C6.24553 26.7412 7.1979 26.9625 8.59394 27.026C9.99292 27.0895 10.4392 27.1054 14.0005 27.1054C17.5618 27.1054 18.0088 27.0906 19.407 27.026C20.8032 26.9625 21.7565 26.7412 22.5901 26.4172C23.4524 26.0817 24.1833 25.6338 24.9131 24.9056C25.643 24.1773 26.09 23.4457 26.4257 22.5839C26.7499 21.7508 26.9723 20.798 27.0348 19.4028C27.0984 18.0043 27.1132 17.5586 27.1132 13.9995C27.1132 10.4403 27.0984 9.99356 27.0348 8.59616C26.9713 7.20085 26.7499 6.24758 26.4257 5.41499C26.09 4.55325 25.6418 3.82278 24.9131 3.09335C24.1844 2.36393 23.4524 1.91623 22.5912 1.58167C21.7565 1.25769 20.8031 1.03541 19.4081 0.972924C18.0098 0.909387 17.5628 0.893555 14.0015 0.893555C10.4403 0.893555 9.99292 0.908338 8.59394 0.972924Z" fill="url(#paint1_radial_74_724)"/>
</g>
<defs>
<radialGradient id="paint0_radial_74_724" cx="0" cy="0" r="1" gradientUnits="userSpaceOnUse" gradientTransform="translate(4.3712 27.2292) scale(34.2378 34.2173)">
<stop offset="0.09" stop-color="#FA8F21"/>
<stop offset="0.78" stop-color="#D82D7E"/>
</radialGradient>
<radialGradient id="paint1_radial_74_724" cx="0" cy="0" r="1" gradientUnits="userSpaceOnUse" gradientTransform="translate(16.7926 28.4035) scale(26.9841 26.968)">
<stop offset="0.64" stop-color="#8C3AAA" stop-opacity="0"/>
<stop offset="1" stop-color="#8C3AAA"/>
</radialGradient>
</defs>
</svg>
