<svg width="22" height="24" viewBox="0 0 22 24" fill="none" xmlns="http://www.w3.org/2000/svg">
<g id="Capa 2">
<g id="ELEMENTS">
<path id="Vector" fill-rule="evenodd" clip-rule="evenodd" d="M16.1224 8.66999C17.73 9.81285 19.6552 10.4235 21.6277 10.4161V6.50696C21.2399 6.50804 20.8532 6.46653 20.4745 6.38318V9.49742C18.4976 9.50092 16.5696 8.88331 14.9627 7.73181V15.7715C14.9578 17.0908 14.596 18.3841 13.9157 19.5144C13.2353 20.6447 12.2618 21.5698 11.0983 22.1916C9.93479 22.8134 8.62468 23.1088 7.30691 23.0464C5.98914 22.984 4.71281 22.5661 3.61328 21.8371C4.63032 22.8661 5.92985 23.5702 7.34731 23.8602C8.76477 24.1502 10.2364 24.013 11.5758 23.4661C12.9153 22.9191 14.0623 21.987 14.8717 20.7878C15.681 19.5885 16.1163 18.176 16.1224 16.7292V8.66999ZM17.5492 4.68272C16.7317 3.7966 16.23 2.66506 16.1224 1.46424V0.956055H15.0278C15.1631 1.71935 15.4575 2.44564 15.8919 3.08769C16.3263 3.72975 16.891 4.2732 17.5492 4.68272ZM6.14768 18.7424C5.76831 18.2463 5.53582 17.6537 5.47668 17.032C5.41753 16.4103 5.5341 15.7845 5.81313 15.2257C6.09215 14.667 6.52241 14.1979 7.05495 13.8716C7.58748 13.5454 8.20091 13.3752 8.8254 13.3804C9.17019 13.3803 9.51295 13.4331 9.84177 13.5368V9.49742C9.45739 9.44651 9.06972 9.42473 8.68207 9.43227V12.5726C7.88143 12.3195 7.01487 12.377 6.25474 12.7338C5.4946 13.0905 4.89659 13.7203 4.57965 14.4979C4.26271 15.2754 4.25007 16.1438 4.54423 16.9303C4.83839 17.7168 5.4178 18.3637 6.16722 18.7424H6.14768Z" fill="#EE1D52"/>
<path id="Vector_2" fill-rule="evenodd" clip-rule="evenodd" d="M14.9616 7.70575C16.5685 8.85725 18.4965 9.47486 20.4734 9.47136V6.35712C19.3471 6.11897 18.3239 5.53331 17.5481 4.68272C16.8899 4.2732 16.3252 3.72975 15.8908 3.08769C15.4564 2.44564 15.162 1.71935 15.0267 0.956055H12.147V16.7292C12.1443 17.4274 11.9231 18.1072 11.5143 18.6732C11.1056 19.2392 10.5298 19.663 9.86789 19.8851C9.20597 20.1072 8.49113 20.1164 7.8237 19.9114C7.15628 19.7065 6.56979 19.2977 6.14657 18.7424C5.47586 18.404 4.93872 17.8495 4.62182 17.1683C4.30492 16.4872 4.22674 15.7191 4.3999 14.9881C4.57306 14.2571 4.98745 13.6057 5.57622 13.1391C6.16499 12.6725 6.8938 12.4178 7.64506 12.4162C7.98975 12.4173 8.33234 12.47 8.66142 12.5726V9.43227C7.23955 9.4664 5.85858 9.91495 4.68804 10.7229C3.5175 11.5308 2.60832 12.6629 2.07212 13.9802C1.53591 15.2975 1.39601 16.7428 1.66959 18.1385C1.94317 19.5342 2.61833 20.8197 3.61218 21.8371C4.71194 22.5714 5.99027 22.9935 7.31101 23.0587C8.63174 23.1238 9.94541 22.8295 11.1121 22.207C12.2788 21.5846 13.2548 20.6573 13.9361 19.524C14.6174 18.3907 14.9786 17.0938 14.9811 15.7715L14.9616 7.70575Z" fill="black"/>
<path id="Vector_3" fill-rule="evenodd" clip-rule="evenodd" d="M20.4736 6.35651V5.51606C19.4392 5.52046 18.4248 5.23128 17.5483 4.68212C18.3221 5.53516 19.3461 6.1213 20.4736 6.35651ZM15.0269 0.955453C15.0269 0.805605 14.9813 0.649241 14.9618 0.499393V-0.00878906H10.9875V15.7709C10.9841 16.6545 10.6302 17.5006 10.0036 18.1235C9.37699 18.7465 8.52882 19.0954 7.64525 19.0936C7.12499 19.0962 6.6115 18.9757 6.14676 18.7418C6.56998 19.2971 7.15647 19.7059 7.82389 19.9108C8.49132 20.1158 9.20616 20.1066 9.86808 19.8845C10.53 19.6624 11.1058 19.2386 11.5145 18.6726C11.9233 18.1066 12.1445 17.4268 12.1472 16.7286V0.955453H15.0269ZM8.66161 9.42515V8.53257C7.02624 8.31041 5.36383 8.6487 3.94532 9.49229C2.52682 10.3359 1.43586 11.6351 0.850242 13.1781C0.264626 14.7211 0.218884 16.4169 0.720472 17.9893C1.22206 19.5616 2.2414 20.9177 3.61237 21.8365C2.62604 20.8167 1.95808 19.5318 1.69008 18.1386C1.42209 16.7454 1.56566 15.3043 2.10327 13.9914C2.64087 12.6785 3.54923 11.5506 4.71738 10.7455C5.88552 9.94034 7.26287 9.49287 8.68116 9.45773L8.66161 9.42515Z" fill="#69C9D0"/>
</g>
</g>
</svg>
